HIERARCHY
ROOT joint_0
{
	OFFSET 0.000000 0.000000 0.000000
	CHANNELS 6 Xposition Yposition Zposition Zrotation Yrotation Xrotation 
	JOINT joint_1
	{
		OFFSET 0.511002 1.944000 108.288940
		CHANNELS 3 Zrotation Yrotation Xrotation
		JOINT joint_2
		{
			OFFSET -9.074005 1.512993 98.440063
			CHANNELS 3 Zrotation Yrotation Xrotation
			JOINT joint_3
			{
				OFFSET -8.590996 1.815002 98.366943
				CHANNELS 3 Zrotation Yrotation Xrotation
				JOINT joint_4
				{
					OFFSET 2.489998 3.531998 136.462036
					CHANNELS 3 Zrotation Yrotation Xrotation
					JOINT joint_5
					{
						OFFSET 22.708000 2.955002 80.357056
						CHANNELS 3 Zrotation Yrotation Xrotation
						End Site
						{
							OFFSET 0.000000 0.000000 0.000000
						}
					}
				}
				JOINT joint_6
				{
					OFFSET 2.860001 -27.684998 77.234009
					CHANNELS 3 Zrotation Yrotation Xrotation
					JOINT joint_7
					{
						OFFSET 5.449997 -131.244003 -18.851929
						CHANNELS 3 Zrotation Yrotation Xrotation
						JOINT joint_8
						{
							OFFSET 35.757000 -24.661995 -264.074097
							CHANNELS 3 Zrotation Yrotation Xrotation
							JOINT joint_9
							{
								OFFSET 49.392001 -1.747002 -239.960938
								CHANNELS 3 Zrotation Yrotation Xrotation
								End Site
								{
									OFFSET 0.000000 0.000000 0.000000
								}
							}
						}
					}
				}
				JOINT joint_10
				{
					OFFSET -0.127998 31.625000 75.753052
					CHANNELS 3 Zrotation Yrotation Xrotation
					JOINT joint_11
					{
						OFFSET -5.618004 131.132996 -19.557007
						CHANNELS 3 Zrotation Yrotation Xrotation
						JOINT joint_12
						{
							OFFSET 46.488998 30.127991 -261.826050
							CHANNELS 3 Zrotation Yrotation Xrotation
							JOINT joint_13
							{
								OFFSET 66.021003 0.474030 -235.934937
								CHANNELS 3 Zrotation Yrotation Xrotation
								End Site
								{
									OFFSET 0.000000 0.000000 0.000000
								}
							}
						}
					}
				}
			}
		}
	}
	JOINT joint_14
	{
		OFFSET 15.887001 -78.871004 -94.561035
		CHANNELS 3 Zrotation Yrotation Xrotation
		JOINT joint_15
		{
			OFFSET -4.133003 6.714001 -473.615967
			CHANNELS 3 Zrotation Yrotation Xrotation
			JOINT joint_16
			{
				OFFSET -19.541000 5.340000 -399.613007
				CHANNELS 3 Zrotation Yrotation Xrotation
				JOINT joint_17
				{
					OFFSET 164.317001 41.657999 -73.195000
					CHANNELS 3 Zrotation Yrotation Xrotation
					End Site
					{
						OFFSET 0.000000 0.000000 0.000000
					}
				}
			}
		}
	}
	JOINT joint_18
	{
		OFFSET 6.513000 77.960991 -96.406982
		CHANNELS 3 Zrotation Yrotation Xrotation
		JOINT joint_19
		{
			OFFSET -10.660004 -8.518997 -473.485016
			CHANNELS 3 Zrotation Yrotation Xrotation
			JOINT joint_20
			{
				OFFSET -36.967995 -11.098999 -398.260010
				CHANNELS 3 Zrotation Yrotation Xrotation
				JOINT joint_21
				{
					OFFSET 166.067997 30.363998 -74.785000
					CHANNELS 3 Zrotation Yrotation Xrotation
					End Site
					{
						OFFSET 0.000000 0.000000 0.000000
					}
				}
			}
		}
	}
}
MOTION
Frames: 10
Frame Time: 0.016667
-2793.594971 944.939880 1060.156006 -1.189762 -0.363098 0.518243 -0.151428 -0.025108 -1.267076 -0.020738 0.012959 0.265681 -0.062099 -0.001167 -0.198000 -0.482128 0.987494 1.573992 0.000000 0.000000 0.000000 0.081591 1.638071 0.181836 0.033427 1.598793 -0.982306 -0.176522 4.055652 -0.726055 0.000000 0.000000 0.000000 -5.477353 2.523726 -1.442143 0.714460 3.580075 1.549110 0.859718 2.589330 2.935639 0.000000 0.000000 0.000000 -2.277513 -0.598324 -2.057662 -2.311720 -0.590774 -0.215386 -2.215411 2.050389 -1.502310 0.000000 0.000000 0.000000 -0.573839 -0.348141 5.841435 -0.395031 -1.545776 -1.087235 -0.560013 3.760228 -0.938924 0.000000 0.000000 0.000000 
-2793.358887 944.894714 1060.120972 -1.170942 -0.369791 0.521605 -0.153813 -0.026175 -1.263187 -0.023514 0.014823 0.265549 -0.064812 -0.001427 -0.197645 -0.484662 0.986604 1.583027 0.000000 0.000000 0.000000 0.076777 1.627536 0.195351 0.032733 1.586533 -0.995597 -0.178029 4.063785 -0.733123 0.000000 0.000000 0.000000 -5.499666 2.526385 -1.460009 0.719797 3.587183 1.536479 0.866913 2.552589 2.962049 0.000000 0.000000 0.000000 -2.284715 -0.574466 -2.061885 -2.319102 -0.592298 -0.211709 -2.222497 2.047586 -1.504760 0.000000 0.000000 0.000000 -0.580622 -0.322411 5.843688 -0.400588 -1.556171 -1.093739 -0.566077 3.743290 -0.938505 0.000000 0.000000 0.000000 
-2793.108398 944.860657 1060.083008 -1.150996 -0.375814 0.525518 -0.157530 -0.021218 -1.260044 -0.027307 0.013782 0.265504 -0.068707 0.001209 -0.198231 -0.487336 0.979348 1.593452 0.000000 0.000000 0.000000 0.076106 1.615305 0.211237 0.032109 1.573104 -1.008015 -0.179841 4.071321 -0.741660 0.000000 0.000000 0.000000 -5.514545 2.527413 -1.478640 0.724371 3.591464 1.523870 0.875516 2.524396 2.992976 0.000000 0.000000 0.000000 -2.291981 -0.551087 -2.066561 -2.326515 -0.592526 -0.210090 -2.229750 2.044147 -1.507120 0.000000 0.000000 0.000000 -0.587699 -0.297708 5.844573 -0.406527 -1.564559 -1.100177 -0.572436 3.725394 -0.938043 0.000000 0.000000 0.000000 
-2792.852051 944.840088 1060.043945 -1.131156 -0.380775 0.529725 -0.163812 -0.008954 -1.256478 -0.033496 0.011190 0.264761 -0.074851 0.005569 -0.197334 -0.489814 0.963511 1.604395 0.000000 0.000000 0.000000 0.082871 1.599834 0.227527 0.031734 1.557493 -1.019463 -0.182137 4.079718 -0.752537 0.000000 0.000000 0.000000 -5.515890 2.525273 -1.500865 0.728025 3.590626 1.512411 0.885894 2.506838 3.029647 0.000000 0.000000 0.000000 -2.298818 -0.530508 -2.070960 -2.333399 -0.588942 -0.211733 -2.236742 2.039016 -1.508932 0.000000 0.000000 0.000000 -0.594458 -0.275702 5.844298 -0.412310 -1.569214 -1.106783 -0.578554 3.707207 -0.937423 0.000000 0.000000 0.000000 
-2792.579590 944.829773 1060.001953 -1.109477 -0.385093 0.534652 -0.171223 0.007820 -1.253925 -0.040632 0.008591 0.263442 -0.081880 0.010782 -0.196169 -0.492479 0.942993 1.616657 0.000000 0.000000 0.000000 0.092057 1.583019 0.245646 0.031464 1.540844 -1.029802 -0.184758 4.087756 -0.764988 0.000000 0.000000 0.000000 -5.511000 2.521687 -1.524044 0.730897 3.587323 1.500751 0.897605 2.497710 3.070604 0.000000 0.000000 0.000000 -2.306098 -0.510099 -2.076205 -2.340707 -0.584311 -0.214908 -2.244258 2.033245 -1.510813 0.000000 0.000000 0.000000 -0.601737 -0.254558 5.842519 -0.418687 -1.572313 -1.113315 -0.585193 3.689061 -0.937044 0.000000 0.000000 0.000000 
-2792.265381 944.824646 1059.954956 -1.085541 -0.390387 0.541511 -0.177347 0.028358 -1.256560 -0.045779 0.003107 0.263097 -0.087173 0.018842 -0.196029 -0.495487 0.920404 1.630408 0.000000 0.000000 0.000000 0.095577 1.568862 0.268657 0.030997 1.525815 -1.041578 -0.186208 4.092684 -0.771791 0.000000 0.000000 0.000000 -5.508925 2.518067 -1.546610 0.732649 3.584268 1.490415 0.908561 2.497999 3.108613 0.000000 0.000000 0.000000 -2.314306 -0.484405 -2.084680 -2.349061 -0.582777 -0.216869 -2.252708 2.027138 -1.513023 0.000000 0.000000 0.000000 -0.609426 -0.229746 5.838339 -0.425387 -1.576205 -1.120242 -0.592189 3.669839 -0.936627 0.000000 0.000000 0.000000 
-2791.914062 944.823364 1059.904053 -1.064152 -0.390185 0.549209 -0.178507 0.044722 -1.264723 -0.045351 -0.002453 0.265798 -0.087435 0.027605 -0.198801 -0.498340 0.898223 1.643505 0.000000 0.000000 0.000000 0.091034 1.560326 0.296789 0.030101 1.515069 -1.054307 -0.185753 4.091011 -0.769393 0.000000 0.000000 0.000000 -5.514503 2.513904 -1.566487 0.731978 3.581334 1.480348 0.918239 2.515827 3.141528 0.000000 0.000000 0.000000 -2.321865 -0.460379 -2.095476 -2.356900 -0.586393 -0.215865 -2.260373 2.023645 -1.515551 0.000000 0.000000 0.000000 -0.615915 -0.208053 5.833311 -0.430989 -1.580628 -1.128009 -0.598212 3.650022 -0.935667 0.000000 0.000000 0.000000 
-2791.520264 944.826355 1059.848999 -1.039739 -0.391269 0.558898 -0.178377 0.064321 -1.279328 -0.042724 -0.008903 0.271086 -0.085848 0.037283 -0.202588 -0.501230 0.876463 1.656648 0.000000 0.000000 0.000000 0.079551 1.554765 0.329564 0.029036 1.506082 -1.068519 -0.184154 4.086862 -0.761470 0.000000 0.000000 0.000000 -5.524584 2.510054 -1.586279 0.730333 3.579291 1.471551 0.927285 2.542711 3.171933 0.000000 0.000000 0.000000 -2.330387 -0.430505 -2.109631 -2.365830 -0.593400 -0.213542 -2.268991 2.020447 -1.518578 0.000000 0.000000 0.000000 -0.623458 -0.182377 5.825898 -0.437549 -1.586022 -1.135978 -0.605197 3.629543 -0.935015 0.000000 0.000000 0.000000 
-2791.039062 944.841003 1059.777954 -0.998012 -0.414046 0.574010 -0.185595 0.103498 -1.299893 -0.046225 -0.017622 0.276595 -0.090590 0.051695 -0.207283 -0.505066 0.851150 1.673653 0.000000 0.000000 0.000000 0.066876 1.548401 0.366237 0.028058 1.495811 -1.086102 -0.182088 4.085647 -0.751270 0.000000 0.000000 0.000000 -5.529198 2.509813 -1.607217 0.730422 3.580399 1.463779 0.935631 2.555742 3.200634 0.000000 0.000000 0.000000 -2.344230 -0.368249 -2.132049 -2.380333 -0.603472 -0.211839 -2.283241 2.010150 -1.522300 0.000000 0.000000 0.000000 -0.636351 -0.128215 5.810700 -0.448672 -1.594939 -1.142964 -0.616534 3.605625 -0.935668 0.000000 0.000000 0.000000 
-2790.516113 944.861816 1059.682007 -0.930515 -0.466182 0.596742 -0.204846 0.165667 -1.329881 -0.060395 -0.030175 0.279202 -0.105630 0.072178 -0.209137 -0.511548 0.829966 1.699480 0.000000 0.000000 0.000000 0.062115 1.535089 0.406853 0.027692 1.479521 -1.102509 -0.182712 4.094732 -0.753861 0.000000 0.000000 0.000000 -5.539864 2.511479 -1.627364 0.732465 3.584653 1.458029 0.942851 2.554780 3.225770 0.000000 0.000000 0.000000 -2.366339 -0.268195 -2.163867 -2.403364 -0.615450 -0.212887 -2.306059 1.996004 -1.528841 0.000000 0.000000 0.000000 -0.657733 -0.040982 5.785871 -0.467343 -1.607756 -1.149262 -0.635136 3.578591 -0.938983 0.000000 0.000000 0.000000 
